<svg xmlns="http://www.w3.org/2000/svg" width="1200" height="700" viewBox="0 0 1200 700" preserveAspectRatio="xMidYMid meet"><rect width="1200" height="700" fill="#f8f6ef"/><text x="62" y="58" font-family="Inter, Arial, sans-serif" font-size="14" font-weight="800" fill="#2f766f" text-anchor="start" letter-spacing="2">DEVELOPING STUDY</text><text x="62" y="104" font-family="Inter, Arial, sans-serif" font-size="34" font-weight="650" fill="#10212b" text-anchor="start" letter-spacing="0">Climate-resilient healthcare accessibility in Dhaka</text><text x="62" y="136" font-family="Inter, Arial, sans-serif" font-size="17" font-weight="400" fill="#607179" text-anchor="start" letter-spacing="0">Network disruption + service access framework</text><rect x="62" y="184" width="1076" height="442" rx="24" fill="#fffdfa" stroke="#cbd4cf" stroke-width="1" opacity="1"/><line x1="110" y1="220" x2="110" y2="590" stroke="#cbd4cf" stroke-width="2" stroke-linecap="round" opacity="1"/><line x1="200" y1="220" x2="200" y2="590" stroke="#cbd4cf" stroke-width="2" stroke-linecap="round" opacity="1"/><line x1="290" y1="220" x2="290" y2="590" stroke="#cbd4cf" stroke-width="2" stroke-linecap="round" opacity="1"/><line x1="380" y1="220" x2="380" y2="590" stroke="#cbd4cf" stroke-width="2" stroke-linecap="round" opacity="1"/><line x1="470" y1="220" x2="470" y2="590" stroke="#cbd4cf" stroke-width="2" stroke-linecap="round" opacity="1"/><line x1="560" y1="220" x2="560" y2="590" stroke="#cbd4cf" stroke-width="2" stroke-linecap="round" opacity="1"/><line x1="650" y1="220" x2="650" y2="590" stroke="#cbd4cf" stroke-width="2" stroke-linecap="round" opacity="1"/><line x1="740" y1="220" x2="740" y2="590" stroke="#cbd4cf" stroke-width="2" stroke-linecap="round" opacity="1"/><line x1="90" y1="230" x2="790" y2="230" stroke="#cbd4cf" stroke-width="2" stroke-linecap="round" opacity="1"/><line x1="90" y1="302" x2="790" y2="302" stroke="#cbd4cf" stroke-width="2" stroke-linecap="round" opacity="1"/><line x1="90" y1="374" x2="790" y2="374" stroke="#cbd4cf" stroke-width="2" stroke-linecap="round" opacity="1"/><line x1="90" y1="446" x2="790" y2="446" stroke="#cbd4cf" stroke-width="2" stroke-linecap="round" opacity="1"/><line x1="90" y1="518" x2="790" y2="518" stroke="#cbd4cf" stroke-width="2" stroke-linecap="round" opacity="1"/><line x1="90" y1="590" x2="790" y2="590" stroke="#cbd4cf" stroke-width="2" stroke-linecap="round" opacity="1"/><path d="M96 410 C190 356 272 380 350 430 C427 480 514 486 610 446 C666 422 718 427 786 465 L786 590 L96 590 Z" fill="#bddbe2" stroke="none" stroke-width="0" stroke-linecap="round" stroke-linejoin="round" opacity="0.72"/><path d="M128 455 C230 420 300 455 365 492 C455 545 540 520 615 488 C675 462 727 472 770 500" fill="none" stroke="#5f8fa8" stroke-width="4" stroke-linecap="round" stroke-linejoin="round" opacity="0.7" stroke-dasharray="9 8"/><circle cx="190" cy="300" r="22" fill="#fffdfa" stroke="#c46b64" stroke-width="4" opacity="1"/><rect x="186" y="288" width="8" height="24" rx="1" fill="#c46b64" stroke="none" stroke-width="0" opacity="1"/><rect x="178" y="296" width="24" height="8" rx="1" fill="#c46b64" stroke="none" stroke-width="0" opacity="1"/><circle cx="465" cy="275" r="22" fill="#fffdfa" stroke="#c46b64" stroke-width="4" opacity="1"/><rect x="461" y="263" width="8" height="24" rx="1" fill="#c46b64" stroke="none" stroke-width="0" opacity="1"/><rect x="453" y="271" width="24" height="8" rx="1" fill="#c46b64" stroke="none" stroke-width="0" opacity="1"/><circle cx="690" cy="340" r="22" fill="#fffdfa" stroke="#c46b64" stroke-width="4" opacity="1"/><rect x="686" y="328" width="8" height="24" rx="1" fill="#c46b64" stroke="none" stroke-width="0" opacity="1"/><rect x="678" y="336" width="24" height="8" rx="1" fill="#c46b64" stroke="none" stroke-width="0" opacity="1"/><path d="M127 520 L140 507 L153 520 L153 536 L127 536 Z" fill="#10212b" stroke="none" stroke-width="1" stroke-linecap="round" stroke-linejoin="round" opacity="1"/><path d="M267 535 L280 522 L293 535 L293 551 L267 551 Z" fill="#10212b" stroke="none" stroke-width="1" stroke-linecap="round" stroke-linejoin="round" opacity="1"/><path d="M397 555 L410 542 L423 555 L423 571 L397 571 Z" fill="#10212b" stroke="none" stroke-width="1" stroke-linecap="round" stroke-linejoin="round" opacity="1"/><path d="M572 535 L585 522 L598 535 L598 551 L572 551 Z" fill="#10212b" stroke="none" stroke-width="1" stroke-linecap="round" stroke-linejoin="round" opacity="1"/><path d="M707 545 L720 532 L733 545 L733 561 L707 561 Z" fill="#10212b" stroke="none" stroke-width="1" stroke-linecap="round" stroke-linejoin="round" opacity="1"/><path d="M140 520 C135 440 145 365 190 322" fill="none" stroke="#2f766f" stroke-width="5" stroke-linecap="round" stroke-linejoin="round" opacity="1"/><path d="M280 535 C295 440 350 330 445 292" fill="none" stroke="#2f766f" stroke-width="5" stroke-linecap="round" stroke-linejoin="round" opacity="1"/><path d="M410 555 C478 475 560 400 675 350" fill="none" stroke="#d89a66" stroke-width="5" stroke-linecap="round" stroke-linejoin="round" opacity="1" stroke-dasharray="14 8"/><path d="M585 535 C600 470 630 420 675 360" fill="none" stroke="#2f766f" stroke-width="5" stroke-linecap="round" stroke-linejoin="round" opacity="1"/><path d="M720 545 C745 475 738 410 700 360" fill="none" stroke="#d89a66" stroke-width="5" stroke-linecap="round" stroke-linejoin="round" opacity="1" stroke-dasharray="14 8"/><rect x="830" y="224" width="260" height="315" rx="18" fill="#eef2f1" stroke="none" stroke-width="0" opacity="1"/><text x="860" y="265" font-family="Inter, Arial, sans-serif" font-size="16" font-weight="750" fill="#10212b" text-anchor="start" letter-spacing="0">Study components</text><circle cx="866" cy="301" r="6" fill="#5f8fa8" stroke="none" stroke-width="1" opacity="1"/><text x="884" y="306" font-family="Inter, Arial, sans-serif" font-size="13" font-weight="550" fill="#607179" text-anchor="start" letter-spacing="0">Flood exposure</text><circle cx="866" cy="343" r="6" fill="#c46b64" stroke="none" stroke-width="1" opacity="1"/><text x="884" y="348" font-family="Inter, Arial, sans-serif" font-size="13" font-weight="550" fill="#607179" text-anchor="start" letter-spacing="0">Healthcare locations</text><circle cx="866" cy="385" r="6" fill="#2f766f" stroke="none" stroke-width="1" opacity="1"/><text x="884" y="390" font-family="Inter, Arial, sans-serif" font-size="13" font-weight="550" fill="#607179" text-anchor="start" letter-spacing="0">Road / transit network</text><circle cx="866" cy="427" r="6" fill="#d89a66" stroke="none" stroke-width="1" opacity="1"/><text x="884" y="432" font-family="Inter, Arial, sans-serif" font-size="13" font-weight="550" fill="#607179" text-anchor="start" letter-spacing="0">Disrupted travel path</text><line x1="855" y1="474" x2="1065" y2="474" stroke="#cbd4cf" stroke-width="1" stroke-linecap="round" opacity="1"/><text x="860" y="502" font-family="Inter, Arial, sans-serif" font-size="11" font-weight="750" fill="#2f766f" text-anchor="start" letter-spacing="1.2">Outcome of interest</text><text x="860" y="528" font-family="Inter, Arial, sans-serif" font-size="14" font-weight="700" fill="#10212b" text-anchor="start" letter-spacing="0">Travel-time accessibility</text><text x="860" y="550" font-family="Inter, Arial, sans-serif" font-size="13" font-weight="450" fill="#607179" text-anchor="start" letter-spacing="0">and neighborhood-level gaps</text></svg>